<svg xmlns="http://www.w3.org/2000/svg" viewBox="0 0 1440 320">
                <path
                    fill="#717779"
                    fill-opacity="1"
                    d="M0,64L48,90.7C96,117,192,171,288,186.7C384,203,480,181,576,160C672,139,768,117,864,96C960,75,1056,53,1152,42.7C1248,32,1344,32,1392,32L1440,32L1440,320L1392,320C1344,320,1248,320,1152,320C1056,320,960,320,864,320C768,320,672,320,576,320C480,320,384,320,288,320C192,320,96,320,48,320L0,320Z"
                ></path>
</svg>